<svg display="none" xmlns="http://www.w3.org/2000/svg">
    <symbol id="magnifier" viewBox="0 0 20 20.062">
        <path d="M1207.99,445.98l-1.04,1.047-5.77-5.784a6.393,6.393,0,0,1-1.09.8,8.623,8.623,0,0,1-1.24.6,7.282,7.282,0,0,1-1.37.374,8.383,8.383,0,0,1-1.42.125,7.735,7.735,0,0,1-3.16-.648,8.442,8.442,0,0,1-2.56-1.745,7.911,7.911,0,0,1-1.71-2.568,7.82,7.82,0,0,1-.62-3.116,8.06,8.06,0,0,1,2.33-5.734,8.1,8.1,0,0,1,2.56-1.72,8.008,8.008,0,0,1,3.16-.623,7.993,7.993,0,0,1,5.67,2.343,8.35,8.35,0,0,1,1.74,2.568,7.794,7.794,0,0,1,.64,3.166,8.663,8.663,0,0,1-.12,1.421,7.462,7.462,0,0,1-.37,1.371,9.336,9.336,0,0,1-.6,1.246,6.95,6.95,0,0,1-.79,1.1l5.76,5.784h0Zm-19.14-10.919a7.015,7.015,0,0,0,.55,2.792,7.121,7.121,0,0,0,1.54,2.293,7.322,7.322,0,0,0,2.31,1.571,6.992,6.992,0,0,0,2.81.573,6.828,6.828,0,0,0,2.79-.573,7.422,7.422,0,0,0,2.28-1.571,7.547,7.547,0,0,0,1.57-2.293,6.858,6.858,0,0,0,.57-2.792,7.036,7.036,0,0,0-.57-2.817,7.48,7.48,0,0,0-1.57-2.318,7.018,7.018,0,0,0-5.07-2.095,7.274,7.274,0,0,0-2.81.549,7.094,7.094,0,0,0-3.85,3.864,7.2,7.2,0,0,0-.55,2.817h0Z" transform="translate(-1188 -426.969)"/>
    </symbol>
    <symbol id="scroll" viewBox="0 0 13.5 7.656">
        <path d="M896.125,616.651l-3.375-3.375,0.844-.844,5.906,5.907,5.906-5.977,0.844,0.844-6.75,6.82-0.844-.843Z" transform="translate(-892.75 -612.375)"/>
    </symbol>
    <symbol id="accept" viewBox="0 0 59.907 59.91">
        <path d="M900,1619.55a29.925,29.925,0,1,1-11.672,2.32A29.593,29.593,0,0,1,900,1619.55h0Zm0,57.51a26.481,26.481,0,0,0,10.758-2.18,26.615,26.615,0,0,0,14.625-14.62,27.656,27.656,0,0,0,0-21.52,26.615,26.615,0,0,0-14.625-14.62,27.635,27.635,0,0,0-21.516,0,26.615,26.615,0,0,0-14.625,14.62,27.644,27.644,0,0,0,0,21.52,26.615,26.615,0,0,0,14.625,14.62A26.467,26.467,0,0,0,900,1677.06h0Zm15.047-38.25a1.416,1.416,0,0,1,1.195-.56,1.847,1.847,0,0,1,1.336.56,2.178,2.178,0,0,1,.422,1.34,1.4,1.4,0,0,1-.563,1.19l-20.531,19.97a0.637,0.637,0,0,1-.492.35,3.04,3.04,0,0,1-.633.07,3.714,3.714,0,0,1-.773-0.07,0.63,0.63,0,0,1-.492-0.35l-8.016-8.01a1.831,1.831,0,0,1-.562-1.34,1.967,1.967,0,0,1,1.757-1.76,1.818,1.818,0,0,1,1.336.57l6.75,6.75,19.266-18.71h0Z" transform="translate(-870.031 -1619.53)"/>
    </symbol>
    <symbol id="ok" viewBox="0 0 61.31 58.79">
        <path d="M1310.59,1648.66a5.645,5.645,0,0,1-.29,1.82,4.866,4.866,0,0,1-.84,1.55,4.953,4.953,0,0,1-1.26,1.13,8.117,8.117,0,0,1-1.55.7,8.716,8.716,0,0,1,.7,1.48,5.021,5.021,0,0,1,.28,1.75,5.208,5.208,0,0,1-.28,1.69,8.117,8.117,0,0,1-.7,1.55,9.455,9.455,0,0,1-1.27,1.05,7.3,7.3,0,0,1-1.4.78,8.023,8.023,0,0,1,.7,1.54,5.3,5.3,0,0,1,.28,1.69,5.079,5.079,0,0,1-.28,1.76,8.619,8.619,0,0,1-.7,1.47,5.987,5.987,0,0,1-1.27,1.2,3.638,3.638,0,0,1-1.55.63,4.825,4.825,0,0,1,1.13,3.24,5.024,5.024,0,0,1-.42,1.97,5.229,5.229,0,0,1-1.13,1.68,7.238,7.238,0,0,1-1.83,1.13,5.3,5.3,0,0,1-2.11.42h-18.56a10.433,10.433,0,0,1-2.25-.28,18.428,18.428,0,0,1-2.67-.84,24.043,24.043,0,0,1-2.81-1.06c-0.94-.42-1.88-0.82-2.81-1.19-1.13-.47-2.23-0.94-3.31-1.41a6.852,6.852,0,0,0-2.32-.7h-12.8v-27.43l1.13-.14h10.97a8.942,8.942,0,0,0,2.32-.28,6.385,6.385,0,0,0,2.18-1.12,23.738,23.738,0,0,0,2.88-1.97q1.62-1.275,3.87-3.1a14.178,14.178,0,0,0,5.13-9.14q0.765-5.475.77-6.32a3.249,3.249,0,0,1,.43-1.62,3.023,3.023,0,0,1,1.12-1.2,4.125,4.125,0,0,1,1.48-.77,5.549,5.549,0,0,1,1.47-.21,9.124,9.124,0,0,1,2.25.28,4.526,4.526,0,0,1,2.11,1.27,6.7,6.7,0,0,1,1.55,2.6,13.555,13.555,0,0,1,.56,4.29,29.3,29.3,0,0,1-.35,4.57,36.576,36.576,0,0,1-.91,4.15,23.294,23.294,0,0,1-1.06,3.58c-0.42,1.08-.77,1.99-1.05,2.74h19.12a5.924,5.924,0,0,1,2.18.36,6.08,6.08,0,0,1,1.76,1.05,4.528,4.528,0,0,1,1.05,1.62,5.53,5.53,0,0,1,.36,2.04h0Zm-5.35,2.95a3.638,3.638,0,0,0,1.27-.21,1.709,1.709,0,0,0,.84-0.63,4.309,4.309,0,0,0,.7-0.92,2.331,2.331,0,0,0,.29-1.19,2.713,2.713,0,0,0-.85-1.97,3.008,3.008,0,0,0-2.25-.85h-22.92l0.84-1.68q3.945-9.705,3.94-15.61c0-3.1-.51-4.9-1.55-5.42a6.082,6.082,0,0,0-2.53-.77,3.224,3.224,0,0,0-1.26.42,1.282,1.282,0,0,0-.85,1.13c0,0.56-.04,1.5-0.14,2.81a22.928,22.928,0,0,1-.84,4.5,29.08,29.08,0,0,1-2.04,5.2,14.092,14.092,0,0,1-3.73,4.64c-1.59,1.32-2.93,2.42-4,3.31a26.032,26.032,0,0,1-3.03,2.18,12.412,12.412,0,0,1-2.81,1.26,10.262,10.262,0,0,1-2.95.42h-9.71v22.79h10.41a7.669,7.669,0,0,1,2.6.63c1.08,0.42,2.41.96,4.01,1.62,0.75,0.37,1.57.77,2.46,1.19a25.892,25.892,0,0,0,2.6,1.06c0.94,0.28,1.78.54,2.53,0.77a6.893,6.893,0,0,0,1.97.35h18.56a2.788,2.788,0,0,0,1.27-.28,3.874,3.874,0,0,0,.98-0.7,1.653,1.653,0,0,0,.64-0.85,3.17,3.17,0,0,0,.21-1.12,3.069,3.069,0,0,0-.21-1.2,2.965,2.965,0,0,0-1.62-1.54,3.42,3.42,0,0,0-1.27-.22h-0.28v-2.39h3.24a3.17,3.17,0,0,0,1.12-.21,2.7,2.7,0,0,0,.99-0.63c0.18-.28.37-0.61,0.56-0.98a2.482,2.482,0,0,0,.28-1.13,2.443,2.443,0,0,0-.28-1.12,10.608,10.608,0,0,0-.56-0.99,8.739,8.739,0,0,0-.99-0.56,2.443,2.443,0,0,0-1.12-.28h-0.99v-2.39h3.52a3.17,3.17,0,0,0,1.12-.21,2.728,2.728,0,0,0,.99-0.64,3.874,3.874,0,0,0,.7-0.98,2.452,2.452,0,0,0,.28-1.13,2.745,2.745,0,0,0-.28-1.26,2.152,2.152,0,0,0-.7-0.85,3.758,3.758,0,0,0-.99-0.7,2.443,2.443,0,0,0-1.12-.28h-1.13v-2.39h4.08Z" transform="translate(-1249.28 -1620.09)"/>
    </symbol>
    <symbol id="twitter" viewBox="0 0 512 512">
        <path d="M459.37 151.716c.325 4.548.325 9.097.325 13.645 0 138.72-105.583 298.558-298.558 298.558-59.452 0-114.68-17.219-161.137-47.106 8.447.974 16.568 1.299 25.34 1.299 49.055 0 94.213-16.568 130.274-44.832-46.132-.975-84.792-31.188-98.112-72.772 6.498.974 12.995 1.624 19.818 1.624 9.421 0 18.843-1.3 27.614-3.573-48.081-9.747-84.143-51.98-84.143-102.985v-1.299c13.969 7.797 30.214 12.67 47.431 13.319-28.264-18.843-46.781-51.005-46.781-87.391 0-19.492 5.197-37.36 14.294-52.954 51.655 63.675 129.3 105.258 216.365 109.807-1.624-7.797-2.599-15.918-2.599-24.04 0-57.828 46.782-104.934 104.934-104.934 30.213 0 57.502 12.67 76.67 33.137 23.715-4.548 46.456-13.32 66.599-25.34-7.798 24.366-24.366 44.833-46.132 57.827 21.117-2.273 41.584-8.122 60.426-16.243-14.292 20.791-32.161 39.308-52.628 54.253z"/>
    </symbol>
    <symbol id="linkedin" viewBox="0 0 448 512">
        <path d="M100.28 448H7.4V148.9h92.88zM53.79 108.1C24.09 108.1 0 83.5 0 53.8a53.79 53.79 0 0 1 107.58 0c0 29.7-24.1 54.3-53.79 54.3zM447.9 448h-92.68V302.4c0-34.7-.7-79.2-48.29-79.2-48.29 0-55.69 37.7-55.69 76.7V448h-92.78V148.9h89.08v40.8h1.3c12.4-23.5 42.69-48.3 87.88-48.3 94 0 111.28 61.9 111.28 142.3V448z"/>
    </symbol>
    <symbol id="pinterest" viewBox="0 0 448 512">
        <path d="M448 80v352c0 26.5-21.5 48-48 48H154.4c9.8-16.4 22.4-40 27.4-59.3 3-11.5 15.3-58.4 15.3-58.4 8 15.3 31.4 28.2 56.3 28.2 74.1 0 127.4-68.1 127.4-152.7 0-81.1-66.2-141.8-151.4-141.8-106 0-162.2 71.1-162.2 148.6 0 36 19.2 80.8 49.8 95.1 4.7 2.2 7.1 1.2 8.2-3.3.8-3.4 5-20.1 6.8-27.8.6-2.5.3-4.6-1.7-7-10.1-12.3-18.3-34.9-18.3-56 0-54.2 41-106.6 110.9-106.6 60.3 0 102.6 41.1 102.6 99.9 0 66.4-33.5 112.4-77.2 112.4-24.1 0-42.1-19.9-36.4-44.4 6.9-29.2 20.3-60.7 20.3-81.8 0-53-75.5-45.7-75.5 25 0 21.7 7.3 36.5 7.3 36.5-31.4 132.8-36.1 134.5-29.6 192.6l2.2.8H48c-26.5 0-48-21.5-48-48V80c0-26.5 21.5-48 48-48h352c26.5 0 48 21.5 48 48z"/>
    </symbol>
    <symbol id="youtube" viewBox="0 0 576 512">
        <path d="M549.655 124.083c-6.281-23.65-24.787-42.276-48.284-48.597C458.781 64 288 64 288 64S117.22 64 74.629 75.486c-23.497 6.322-42.003 24.947-48.284 48.597-11.412 42.867-11.412 132.305-11.412 132.305s0 89.438 11.412 132.305c6.281 23.65 24.787 41.5 48.284 47.821C117.22 448 288 448 288 448s170.78 0 213.371-11.486c23.497-6.321 42.003-24.171 48.284-47.821 11.412-42.867 11.412-132.305 11.412-132.305s0-89.438-11.412-132.305zm-317.51 213.508V175.185l142.739 81.205-142.739 81.201z"/>
    </symbol>
    <symbol id="facebook" viewBox="0 0 320 512">
        <path d="M279.14 288l14.22-92.66h-88.91v-60.13c0-25.35 12.42-50.06 52.24-50.06h40.42V6.26S260.43 0 225.36 0c-73.22 0-121.08 44.38-121.08 124.72v70.62H22.89V288h81.39v224h100.17V288z"/>
    </symbol>
</svg>